G04 (created by PCBNEW (2013-07-07 BZR 4022)-stable) date 5/4/2015 11:47:39 PM*
%MOIN*%
G04 Gerber Fmt 3.4, Leading zero omitted, Abs format*
%FSLAX34Y34*%
G01*
G70*
G90*
G04 APERTURE LIST*
%ADD10C,0.00590551*%
%ADD11C,0.005*%
%ADD12C,0.008*%
%ADD13C,0.0001*%
G04 APERTURE END LIST*
G54D10*
G54D11*
X89291Y-29196D02*
X89303Y-29184D01*
X89327Y-29148D01*
X89339Y-29125D01*
X89351Y-29089D01*
X89363Y-29029D01*
X89363Y-28982D01*
X89351Y-28922D01*
X89339Y-28886D01*
X89327Y-28863D01*
X89303Y-28827D01*
X89291Y-28815D01*
X89208Y-29089D02*
X89184Y-29101D01*
X89136Y-29101D01*
X89113Y-29089D01*
X89101Y-29065D01*
X89101Y-29053D01*
X89113Y-29029D01*
X89136Y-29017D01*
X89172Y-29017D01*
X89196Y-29005D01*
X89208Y-28982D01*
X89208Y-28970D01*
X89196Y-28946D01*
X89172Y-28934D01*
X89136Y-28934D01*
X89113Y-28946D01*
X88886Y-28934D02*
X88886Y-29101D01*
X88994Y-28934D02*
X88994Y-29065D01*
X88982Y-29089D01*
X88958Y-29101D01*
X88922Y-29101D01*
X88898Y-29089D01*
X88886Y-29077D01*
X88767Y-28934D02*
X88767Y-29184D01*
X88767Y-28946D02*
X88744Y-28934D01*
X88696Y-28934D01*
X88672Y-28946D01*
X88660Y-28958D01*
X88648Y-28982D01*
X88648Y-29053D01*
X88660Y-29077D01*
X88672Y-29089D01*
X88696Y-29101D01*
X88744Y-29101D01*
X88767Y-29089D01*
X88541Y-28934D02*
X88541Y-29184D01*
X88541Y-28946D02*
X88517Y-28934D01*
X88470Y-28934D01*
X88446Y-28946D01*
X88434Y-28958D01*
X88422Y-28982D01*
X88422Y-29053D01*
X88434Y-29077D01*
X88446Y-29089D01*
X88470Y-29101D01*
X88517Y-29101D01*
X88541Y-29089D01*
X88279Y-29101D02*
X88303Y-29089D01*
X88315Y-29077D01*
X88327Y-29053D01*
X88327Y-28982D01*
X88315Y-28958D01*
X88303Y-28946D01*
X88279Y-28934D01*
X88244Y-28934D01*
X88220Y-28946D01*
X88208Y-28958D01*
X88196Y-28982D01*
X88196Y-29053D01*
X88208Y-29077D01*
X88220Y-29089D01*
X88244Y-29101D01*
X88279Y-29101D01*
X88089Y-29101D02*
X88089Y-28934D01*
X88089Y-28982D02*
X88077Y-28958D01*
X88065Y-28946D01*
X88041Y-28934D01*
X88017Y-28934D01*
X87970Y-28934D02*
X87875Y-28934D01*
X87934Y-28851D02*
X87934Y-29065D01*
X87922Y-29089D01*
X87898Y-29101D01*
X87875Y-29101D01*
X87803Y-29089D02*
X87779Y-29101D01*
X87732Y-29101D01*
X87708Y-29089D01*
X87696Y-29065D01*
X87696Y-29053D01*
X87708Y-29029D01*
X87732Y-29017D01*
X87767Y-29017D01*
X87791Y-29005D01*
X87803Y-28982D01*
X87803Y-28970D01*
X87791Y-28946D01*
X87767Y-28934D01*
X87732Y-28934D01*
X87708Y-28946D01*
X87291Y-29101D02*
X87291Y-28970D01*
X87303Y-28946D01*
X87327Y-28934D01*
X87375Y-28934D01*
X87398Y-28946D01*
X87291Y-29089D02*
X87315Y-29101D01*
X87375Y-29101D01*
X87398Y-29089D01*
X87410Y-29065D01*
X87410Y-29041D01*
X87398Y-29017D01*
X87375Y-29005D01*
X87315Y-29005D01*
X87291Y-28994D01*
X87208Y-28934D02*
X87113Y-28934D01*
X87172Y-28851D02*
X87172Y-29065D01*
X87160Y-29089D01*
X87136Y-29101D01*
X87113Y-29101D01*
X86803Y-29101D02*
X86827Y-29089D01*
X86839Y-29065D01*
X86839Y-28851D01*
X86613Y-29089D02*
X86636Y-29101D01*
X86684Y-29101D01*
X86708Y-29089D01*
X86720Y-29065D01*
X86720Y-28970D01*
X86708Y-28946D01*
X86684Y-28934D01*
X86636Y-28934D01*
X86613Y-28946D01*
X86601Y-28970D01*
X86601Y-28994D01*
X86720Y-29017D01*
X86386Y-29101D02*
X86386Y-28970D01*
X86398Y-28946D01*
X86422Y-28934D01*
X86470Y-28934D01*
X86494Y-28946D01*
X86386Y-29089D02*
X86410Y-29101D01*
X86470Y-29101D01*
X86494Y-29089D01*
X86505Y-29065D01*
X86505Y-29041D01*
X86494Y-29017D01*
X86470Y-29005D01*
X86410Y-29005D01*
X86386Y-28994D01*
X86279Y-29089D02*
X86255Y-29101D01*
X86208Y-29101D01*
X86184Y-29089D01*
X86172Y-29065D01*
X86172Y-29053D01*
X86184Y-29029D01*
X86208Y-29017D01*
X86244Y-29017D01*
X86267Y-29005D01*
X86279Y-28982D01*
X86279Y-28970D01*
X86267Y-28946D01*
X86244Y-28934D01*
X86208Y-28934D01*
X86184Y-28946D01*
X86101Y-28934D02*
X86005Y-28934D01*
X86065Y-28851D02*
X86065Y-29065D01*
X86053Y-29089D01*
X86029Y-29101D01*
X86005Y-29101D01*
X85720Y-29101D02*
X85672Y-29101D01*
X85648Y-29089D01*
X85636Y-29077D01*
X85613Y-29041D01*
X85601Y-28994D01*
X85601Y-28898D01*
X85613Y-28875D01*
X85624Y-28863D01*
X85648Y-28851D01*
X85696Y-28851D01*
X85720Y-28863D01*
X85732Y-28875D01*
X85744Y-28898D01*
X85744Y-28958D01*
X85732Y-28982D01*
X85720Y-28994D01*
X85696Y-29005D01*
X85648Y-29005D01*
X85624Y-28994D01*
X85613Y-28982D01*
X85601Y-28958D01*
X85386Y-28851D02*
X85434Y-28851D01*
X85458Y-28863D01*
X85470Y-28875D01*
X85494Y-28910D01*
X85505Y-28958D01*
X85505Y-29053D01*
X85494Y-29077D01*
X85482Y-29089D01*
X85458Y-29101D01*
X85410Y-29101D01*
X85386Y-29089D01*
X85374Y-29077D01*
X85363Y-29053D01*
X85363Y-28994D01*
X85374Y-28970D01*
X85386Y-28958D01*
X85410Y-28946D01*
X85458Y-28946D01*
X85482Y-28958D01*
X85494Y-28970D01*
X85505Y-28994D01*
X85208Y-28851D02*
X85184Y-28851D01*
X85160Y-28863D01*
X85148Y-28875D01*
X85136Y-28898D01*
X85124Y-28946D01*
X85124Y-29005D01*
X85136Y-29053D01*
X85148Y-29077D01*
X85160Y-29089D01*
X85184Y-29101D01*
X85208Y-29101D01*
X85232Y-29089D01*
X85244Y-29077D01*
X85255Y-29053D01*
X85267Y-29005D01*
X85267Y-28946D01*
X85255Y-28898D01*
X85244Y-28875D01*
X85232Y-28863D01*
X85208Y-28851D01*
X84970Y-28851D02*
X84946Y-28851D01*
X84922Y-28863D01*
X84910Y-28875D01*
X84898Y-28898D01*
X84886Y-28946D01*
X84886Y-29005D01*
X84898Y-29053D01*
X84910Y-29077D01*
X84922Y-29089D01*
X84946Y-29101D01*
X84970Y-29101D01*
X84994Y-29089D01*
X85005Y-29077D01*
X85017Y-29053D01*
X85029Y-29005D01*
X85029Y-28946D01*
X85017Y-28898D01*
X85005Y-28875D01*
X84994Y-28863D01*
X84970Y-28851D01*
X84589Y-29101D02*
X84589Y-28851D01*
X84589Y-28946D02*
X84565Y-28934D01*
X84517Y-28934D01*
X84494Y-28946D01*
X84482Y-28958D01*
X84470Y-28982D01*
X84470Y-29053D01*
X84482Y-29077D01*
X84494Y-29089D01*
X84517Y-29101D01*
X84565Y-29101D01*
X84589Y-29089D01*
X84255Y-29101D02*
X84255Y-28970D01*
X84267Y-28946D01*
X84291Y-28934D01*
X84339Y-28934D01*
X84363Y-28946D01*
X84255Y-29089D02*
X84279Y-29101D01*
X84339Y-29101D01*
X84363Y-29089D01*
X84374Y-29065D01*
X84374Y-29041D01*
X84363Y-29017D01*
X84339Y-29005D01*
X84279Y-29005D01*
X84255Y-28994D01*
X84029Y-28934D02*
X84029Y-29101D01*
X84136Y-28934D02*
X84136Y-29065D01*
X84124Y-29089D01*
X84101Y-29101D01*
X84065Y-29101D01*
X84041Y-29089D01*
X84029Y-29077D01*
X83803Y-29101D02*
X83803Y-28851D01*
X83803Y-29089D02*
X83827Y-29101D01*
X83874Y-29101D01*
X83898Y-29089D01*
X83910Y-29077D01*
X83922Y-29053D01*
X83922Y-28982D01*
X83910Y-28958D01*
X83898Y-28946D01*
X83874Y-28934D01*
X83827Y-28934D01*
X83803Y-28946D01*
X83708Y-29196D02*
X83696Y-29184D01*
X83672Y-29148D01*
X83660Y-29125D01*
X83648Y-29089D01*
X83636Y-29029D01*
X83636Y-28982D01*
X83648Y-28922D01*
X83660Y-28886D01*
X83672Y-28863D01*
X83696Y-28827D01*
X83708Y-28815D01*
G54D12*
X91033Y-20933D02*
X91071Y-20914D01*
X91090Y-20895D01*
X91109Y-20857D01*
X91109Y-20838D01*
X91090Y-20800D01*
X91071Y-20780D01*
X91033Y-20761D01*
X90957Y-20761D01*
X90919Y-20780D01*
X90899Y-20800D01*
X90880Y-20838D01*
X90880Y-20857D01*
X90899Y-20895D01*
X90919Y-20914D01*
X90957Y-20933D01*
X91033Y-20933D01*
X91071Y-20952D01*
X91090Y-20971D01*
X91109Y-21009D01*
X91109Y-21085D01*
X91090Y-21123D01*
X91071Y-21142D01*
X91033Y-21161D01*
X90957Y-21161D01*
X90919Y-21142D01*
X90899Y-21123D01*
X90880Y-21085D01*
X90880Y-21009D01*
X90899Y-20971D01*
X90919Y-20952D01*
X90957Y-20933D01*
X90499Y-21161D02*
X90728Y-21161D01*
X90614Y-21161D02*
X90614Y-20761D01*
X90652Y-20819D01*
X90690Y-20857D01*
X90728Y-20876D01*
X90366Y-20761D02*
X90099Y-20761D01*
X90271Y-21161D01*
X89699Y-20761D02*
X89471Y-20761D01*
X89585Y-21161D02*
X89585Y-20761D01*
X89395Y-20761D02*
X89166Y-20761D01*
X89280Y-21161D02*
X89280Y-20761D01*
X88842Y-21161D02*
X89033Y-21161D01*
X89033Y-20761D01*
X88423Y-21142D02*
X88366Y-21161D01*
X88271Y-21161D01*
X88233Y-21142D01*
X88214Y-21123D01*
X88195Y-21085D01*
X88195Y-21047D01*
X88214Y-21009D01*
X88233Y-20990D01*
X88271Y-20971D01*
X88347Y-20952D01*
X88385Y-20933D01*
X88404Y-20914D01*
X88423Y-20876D01*
X88423Y-20838D01*
X88404Y-20800D01*
X88385Y-20780D01*
X88347Y-20761D01*
X88252Y-20761D01*
X88195Y-20780D01*
X87871Y-21142D02*
X87909Y-21161D01*
X87985Y-21161D01*
X88023Y-21142D01*
X88042Y-21104D01*
X88042Y-20952D01*
X88023Y-20914D01*
X87985Y-20895D01*
X87909Y-20895D01*
X87871Y-20914D01*
X87852Y-20952D01*
X87852Y-20990D01*
X88042Y-21028D01*
X87680Y-21161D02*
X87680Y-20895D01*
X87680Y-20971D02*
X87661Y-20933D01*
X87642Y-20914D01*
X87604Y-20895D01*
X87566Y-20895D01*
X87433Y-21161D02*
X87433Y-20895D01*
X87433Y-20761D02*
X87452Y-20780D01*
X87433Y-20800D01*
X87414Y-20780D01*
X87433Y-20761D01*
X87433Y-20800D01*
X87071Y-21161D02*
X87071Y-20952D01*
X87090Y-20914D01*
X87128Y-20895D01*
X87204Y-20895D01*
X87242Y-20914D01*
X87071Y-21142D02*
X87109Y-21161D01*
X87204Y-21161D01*
X87242Y-21142D01*
X87261Y-21104D01*
X87261Y-21066D01*
X87242Y-21028D01*
X87204Y-21009D01*
X87109Y-21009D01*
X87071Y-20990D01*
X86823Y-21161D02*
X86861Y-21142D01*
X86880Y-21104D01*
X86880Y-20761D01*
X86290Y-20761D02*
X86214Y-20761D01*
X86176Y-20780D01*
X86138Y-20819D01*
X86119Y-20895D01*
X86119Y-21028D01*
X86138Y-21104D01*
X86176Y-21142D01*
X86214Y-21161D01*
X86290Y-21161D01*
X86328Y-21142D01*
X86366Y-21104D01*
X86385Y-21028D01*
X86385Y-20895D01*
X86366Y-20819D01*
X86328Y-20780D01*
X86290Y-20761D01*
X85947Y-20895D02*
X85947Y-21295D01*
X85947Y-20914D02*
X85909Y-20895D01*
X85833Y-20895D01*
X85795Y-20914D01*
X85776Y-20933D01*
X85757Y-20971D01*
X85757Y-21085D01*
X85776Y-21123D01*
X85795Y-21142D01*
X85833Y-21161D01*
X85909Y-21161D01*
X85947Y-21142D01*
X85642Y-20895D02*
X85490Y-20895D01*
X85585Y-20761D02*
X85585Y-21104D01*
X85566Y-21142D01*
X85528Y-21161D01*
X85490Y-21161D01*
X85300Y-21161D02*
X85338Y-21142D01*
X85357Y-21123D01*
X85376Y-21085D01*
X85376Y-20971D01*
X85357Y-20933D01*
X85338Y-20914D01*
X85300Y-20895D01*
X85242Y-20895D01*
X85204Y-20914D01*
X85185Y-20933D01*
X85166Y-20971D01*
X85166Y-21085D01*
X85185Y-21123D01*
X85204Y-21142D01*
X85242Y-21161D01*
X85300Y-21161D01*
X84995Y-21161D02*
X84995Y-20895D01*
X84995Y-20761D02*
X85014Y-20780D01*
X84995Y-20800D01*
X84976Y-20780D01*
X84995Y-20761D01*
X84995Y-20800D01*
X84823Y-21142D02*
X84785Y-21161D01*
X84709Y-21161D01*
X84671Y-21142D01*
X84652Y-21104D01*
X84652Y-21085D01*
X84671Y-21047D01*
X84709Y-21028D01*
X84766Y-21028D01*
X84804Y-21009D01*
X84823Y-20971D01*
X84823Y-20952D01*
X84804Y-20914D01*
X84766Y-20895D01*
X84709Y-20895D01*
X84671Y-20914D01*
X84423Y-21161D02*
X84461Y-21142D01*
X84480Y-21123D01*
X84500Y-21085D01*
X84500Y-20971D01*
X84480Y-20933D01*
X84461Y-20914D01*
X84423Y-20895D01*
X84366Y-20895D01*
X84328Y-20914D01*
X84309Y-20933D01*
X84290Y-20971D01*
X84290Y-21085D01*
X84309Y-21123D01*
X84328Y-21142D01*
X84366Y-21161D01*
X84423Y-21161D01*
X84061Y-21161D02*
X84100Y-21142D01*
X84119Y-21104D01*
X84119Y-20761D01*
X83738Y-21161D02*
X83738Y-20952D01*
X83757Y-20914D01*
X83795Y-20895D01*
X83871Y-20895D01*
X83909Y-20914D01*
X83738Y-21142D02*
X83776Y-21161D01*
X83871Y-21161D01*
X83909Y-21142D01*
X83928Y-21104D01*
X83928Y-21066D01*
X83909Y-21028D01*
X83871Y-21009D01*
X83776Y-21009D01*
X83738Y-20990D01*
X83604Y-20895D02*
X83452Y-20895D01*
X83547Y-20761D02*
X83547Y-21104D01*
X83528Y-21142D01*
X83490Y-21161D01*
X83452Y-21161D01*
X83261Y-21161D02*
X83300Y-21142D01*
X83319Y-21123D01*
X83338Y-21085D01*
X83338Y-20971D01*
X83319Y-20933D01*
X83300Y-20914D01*
X83261Y-20895D01*
X83204Y-20895D01*
X83166Y-20914D01*
X83147Y-20933D01*
X83128Y-20971D01*
X83128Y-21085D01*
X83147Y-21123D01*
X83166Y-21142D01*
X83204Y-21161D01*
X83261Y-21161D01*
X82957Y-21161D02*
X82957Y-20895D01*
X82957Y-20971D02*
X82938Y-20933D01*
X82919Y-20914D01*
X82880Y-20895D01*
X82842Y-20895D01*
X82442Y-20895D02*
X82347Y-21161D01*
X82252Y-20895D01*
X81890Y-21161D02*
X82119Y-21161D01*
X82004Y-21161D02*
X82004Y-20761D01*
X82042Y-20819D01*
X82080Y-20857D01*
X82119Y-20876D01*
G54D11*
X91363Y-24934D02*
X91363Y-25136D01*
X91375Y-25160D01*
X91386Y-25172D01*
X91410Y-25184D01*
X91446Y-25184D01*
X91470Y-25172D01*
X91363Y-25089D02*
X91386Y-25101D01*
X91434Y-25101D01*
X91458Y-25089D01*
X91470Y-25077D01*
X91482Y-25053D01*
X91482Y-24982D01*
X91470Y-24958D01*
X91458Y-24946D01*
X91434Y-24934D01*
X91386Y-24934D01*
X91363Y-24946D01*
X91244Y-25101D02*
X91244Y-24934D01*
X91244Y-24851D02*
X91255Y-24863D01*
X91244Y-24875D01*
X91232Y-24863D01*
X91244Y-24851D01*
X91244Y-24875D01*
X91160Y-24934D02*
X91065Y-24934D01*
X91125Y-24851D02*
X91125Y-25065D01*
X91113Y-25089D01*
X91089Y-25101D01*
X91065Y-25101D01*
X90982Y-25101D02*
X90982Y-24851D01*
X90875Y-25101D02*
X90875Y-24970D01*
X90886Y-24946D01*
X90910Y-24934D01*
X90946Y-24934D01*
X90970Y-24946D01*
X90982Y-24958D01*
X90648Y-24934D02*
X90648Y-25101D01*
X90755Y-24934D02*
X90755Y-25065D01*
X90744Y-25089D01*
X90720Y-25101D01*
X90684Y-25101D01*
X90660Y-25089D01*
X90648Y-25077D01*
X90529Y-25101D02*
X90529Y-24851D01*
X90529Y-24946D02*
X90505Y-24934D01*
X90458Y-24934D01*
X90434Y-24946D01*
X90422Y-24958D01*
X90410Y-24982D01*
X90410Y-25053D01*
X90422Y-25077D01*
X90434Y-25089D01*
X90458Y-25101D01*
X90505Y-25101D01*
X90529Y-25089D01*
X90303Y-25077D02*
X90291Y-25089D01*
X90303Y-25101D01*
X90315Y-25089D01*
X90303Y-25077D01*
X90303Y-25101D01*
X90077Y-25089D02*
X90101Y-25101D01*
X90148Y-25101D01*
X90172Y-25089D01*
X90184Y-25077D01*
X90196Y-25053D01*
X90196Y-24982D01*
X90184Y-24958D01*
X90172Y-24946D01*
X90148Y-24934D01*
X90101Y-24934D01*
X90077Y-24946D01*
X89934Y-25101D02*
X89958Y-25089D01*
X89970Y-25077D01*
X89982Y-25053D01*
X89982Y-24982D01*
X89970Y-24958D01*
X89958Y-24946D01*
X89934Y-24934D01*
X89898Y-24934D01*
X89875Y-24946D01*
X89863Y-24958D01*
X89851Y-24982D01*
X89851Y-25053D01*
X89863Y-25077D01*
X89875Y-25089D01*
X89898Y-25101D01*
X89934Y-25101D01*
X89744Y-25101D02*
X89744Y-24934D01*
X89744Y-24958D02*
X89732Y-24946D01*
X89708Y-24934D01*
X89672Y-24934D01*
X89648Y-24946D01*
X89636Y-24970D01*
X89636Y-25101D01*
X89636Y-24970D02*
X89625Y-24946D01*
X89601Y-24934D01*
X89565Y-24934D01*
X89541Y-24946D01*
X89529Y-24970D01*
X89529Y-25101D01*
X89232Y-24839D02*
X89446Y-25160D01*
X89148Y-24934D02*
X89148Y-25184D01*
X89148Y-24946D02*
X89125Y-24934D01*
X89077Y-24934D01*
X89053Y-24946D01*
X89041Y-24958D01*
X89029Y-24982D01*
X89029Y-25053D01*
X89041Y-25077D01*
X89053Y-25089D01*
X89077Y-25101D01*
X89125Y-25101D01*
X89148Y-25089D01*
X88827Y-25089D02*
X88851Y-25101D01*
X88898Y-25101D01*
X88922Y-25089D01*
X88934Y-25065D01*
X88934Y-24970D01*
X88922Y-24946D01*
X88898Y-24934D01*
X88851Y-24934D01*
X88827Y-24946D01*
X88815Y-24970D01*
X88815Y-24994D01*
X88934Y-25017D01*
X88708Y-24934D02*
X88708Y-25184D01*
X88708Y-24946D02*
X88684Y-24934D01*
X88636Y-24934D01*
X88613Y-24946D01*
X88601Y-24958D01*
X88589Y-24982D01*
X88589Y-25053D01*
X88601Y-25077D01*
X88613Y-25089D01*
X88636Y-25101D01*
X88684Y-25101D01*
X88708Y-25089D01*
X88375Y-25101D02*
X88375Y-24970D01*
X88386Y-24946D01*
X88410Y-24934D01*
X88458Y-24934D01*
X88482Y-24946D01*
X88375Y-25089D02*
X88398Y-25101D01*
X88458Y-25101D01*
X88482Y-25089D01*
X88494Y-25065D01*
X88494Y-25041D01*
X88482Y-25017D01*
X88458Y-25005D01*
X88398Y-25005D01*
X88375Y-24994D01*
X88267Y-25089D02*
X88244Y-25101D01*
X88196Y-25101D01*
X88172Y-25089D01*
X88160Y-25065D01*
X88160Y-25053D01*
X88172Y-25029D01*
X88196Y-25017D01*
X88232Y-25017D01*
X88255Y-25005D01*
X88267Y-24982D01*
X88267Y-24970D01*
X88255Y-24946D01*
X88232Y-24934D01*
X88196Y-24934D01*
X88172Y-24946D01*
X88017Y-25101D02*
X88041Y-25089D01*
X88053Y-25065D01*
X88053Y-24851D01*
X87815Y-25101D02*
X87815Y-24970D01*
X87827Y-24946D01*
X87851Y-24934D01*
X87898Y-24934D01*
X87922Y-24946D01*
X87815Y-25089D02*
X87839Y-25101D01*
X87898Y-25101D01*
X87922Y-25089D01*
X87934Y-25065D01*
X87934Y-25041D01*
X87922Y-25017D01*
X87898Y-25005D01*
X87839Y-25005D01*
X87815Y-24994D01*
X87696Y-25101D02*
X87696Y-24851D01*
X87696Y-24946D02*
X87672Y-24934D01*
X87624Y-24934D01*
X87601Y-24946D01*
X87589Y-24958D01*
X87577Y-24982D01*
X87577Y-25053D01*
X87589Y-25077D01*
X87601Y-25089D01*
X87624Y-25101D01*
X87672Y-25101D01*
X87696Y-25089D01*
X87482Y-25089D02*
X87458Y-25101D01*
X87410Y-25101D01*
X87386Y-25089D01*
X87374Y-25065D01*
X87374Y-25053D01*
X87386Y-25029D01*
X87410Y-25017D01*
X87446Y-25017D01*
X87470Y-25005D01*
X87482Y-24982D01*
X87482Y-24970D01*
X87470Y-24946D01*
X87446Y-24934D01*
X87410Y-24934D01*
X87386Y-24946D01*
X87089Y-24839D02*
X87303Y-25160D01*
X86970Y-24958D02*
X86994Y-24946D01*
X87005Y-24934D01*
X87017Y-24910D01*
X87017Y-24898D01*
X87005Y-24875D01*
X86994Y-24863D01*
X86970Y-24851D01*
X86922Y-24851D01*
X86898Y-24863D01*
X86886Y-24875D01*
X86874Y-24898D01*
X86874Y-24910D01*
X86886Y-24934D01*
X86898Y-24946D01*
X86922Y-24958D01*
X86970Y-24958D01*
X86994Y-24970D01*
X87005Y-24982D01*
X87017Y-25005D01*
X87017Y-25053D01*
X87005Y-25077D01*
X86994Y-25089D01*
X86970Y-25101D01*
X86922Y-25101D01*
X86898Y-25089D01*
X86886Y-25077D01*
X86874Y-25053D01*
X86874Y-25005D01*
X86886Y-24982D01*
X86898Y-24970D01*
X86922Y-24958D01*
X86636Y-25101D02*
X86779Y-25101D01*
X86708Y-25101D02*
X86708Y-24851D01*
X86732Y-24886D01*
X86755Y-24910D01*
X86779Y-24922D01*
X86553Y-24851D02*
X86386Y-24851D01*
X86494Y-25101D01*
X86291Y-25005D02*
X86101Y-25005D01*
X86017Y-24851D02*
X85874Y-24851D01*
X85946Y-25101D02*
X85946Y-24851D01*
X85827Y-24851D02*
X85684Y-24851D01*
X85755Y-25101D02*
X85755Y-24851D01*
X85482Y-25101D02*
X85601Y-25101D01*
X85601Y-24851D01*
X85398Y-25005D02*
X85208Y-25005D01*
X85101Y-25089D02*
X85065Y-25101D01*
X85005Y-25101D01*
X84982Y-25089D01*
X84970Y-25077D01*
X84958Y-25053D01*
X84958Y-25029D01*
X84970Y-25005D01*
X84982Y-24994D01*
X85005Y-24982D01*
X85053Y-24970D01*
X85077Y-24958D01*
X85089Y-24946D01*
X85101Y-24922D01*
X85101Y-24898D01*
X85089Y-24875D01*
X85077Y-24863D01*
X85053Y-24851D01*
X84994Y-24851D01*
X84958Y-24863D01*
X84755Y-25089D02*
X84779Y-25101D01*
X84827Y-25101D01*
X84851Y-25089D01*
X84863Y-25065D01*
X84863Y-24970D01*
X84851Y-24946D01*
X84827Y-24934D01*
X84779Y-24934D01*
X84755Y-24946D01*
X84744Y-24970D01*
X84744Y-24994D01*
X84863Y-25017D01*
X84636Y-25101D02*
X84636Y-24934D01*
X84636Y-24982D02*
X84624Y-24958D01*
X84613Y-24946D01*
X84589Y-24934D01*
X84565Y-24934D01*
X84482Y-25101D02*
X84482Y-24934D01*
X84482Y-24851D02*
X84494Y-24863D01*
X84482Y-24875D01*
X84470Y-24863D01*
X84482Y-24851D01*
X84482Y-24875D01*
X84255Y-25101D02*
X84255Y-24970D01*
X84267Y-24946D01*
X84291Y-24934D01*
X84339Y-24934D01*
X84363Y-24946D01*
X84255Y-25089D02*
X84279Y-25101D01*
X84339Y-25101D01*
X84363Y-25089D01*
X84374Y-25065D01*
X84374Y-25041D01*
X84363Y-25017D01*
X84339Y-25005D01*
X84279Y-25005D01*
X84255Y-24994D01*
X84101Y-25101D02*
X84124Y-25089D01*
X84136Y-25065D01*
X84136Y-24851D01*
X84005Y-25005D02*
X83815Y-25005D01*
X83648Y-24851D02*
X83601Y-24851D01*
X83577Y-24863D01*
X83553Y-24886D01*
X83541Y-24934D01*
X83541Y-25017D01*
X83553Y-25065D01*
X83577Y-25089D01*
X83601Y-25101D01*
X83648Y-25101D01*
X83672Y-25089D01*
X83696Y-25065D01*
X83708Y-25017D01*
X83708Y-24934D01*
X83696Y-24886D01*
X83672Y-24863D01*
X83648Y-24851D01*
X83434Y-24934D02*
X83434Y-25184D01*
X83434Y-24946D02*
X83410Y-24934D01*
X83363Y-24934D01*
X83339Y-24946D01*
X83327Y-24958D01*
X83315Y-24982D01*
X83315Y-25053D01*
X83327Y-25077D01*
X83339Y-25089D01*
X83363Y-25101D01*
X83410Y-25101D01*
X83434Y-25089D01*
X83244Y-24934D02*
X83148Y-24934D01*
X83208Y-24851D02*
X83208Y-25065D01*
X83196Y-25089D01*
X83172Y-25101D01*
X83148Y-25101D01*
X83029Y-25101D02*
X83053Y-25089D01*
X83065Y-25077D01*
X83077Y-25053D01*
X83077Y-24982D01*
X83065Y-24958D01*
X83053Y-24946D01*
X83029Y-24934D01*
X82994Y-24934D01*
X82970Y-24946D01*
X82958Y-24958D01*
X82946Y-24982D01*
X82946Y-25053D01*
X82958Y-25077D01*
X82970Y-25089D01*
X82994Y-25101D01*
X83029Y-25101D01*
X82839Y-25101D02*
X82839Y-24934D01*
X82839Y-24851D02*
X82851Y-24863D01*
X82839Y-24875D01*
X82827Y-24863D01*
X82839Y-24851D01*
X82839Y-24875D01*
X82732Y-25089D02*
X82708Y-25101D01*
X82660Y-25101D01*
X82636Y-25089D01*
X82624Y-25065D01*
X82624Y-25053D01*
X82636Y-25029D01*
X82660Y-25017D01*
X82696Y-25017D01*
X82720Y-25005D01*
X82732Y-24982D01*
X82732Y-24970D01*
X82720Y-24946D01*
X82696Y-24934D01*
X82660Y-24934D01*
X82636Y-24946D01*
X82482Y-25101D02*
X82505Y-25089D01*
X82517Y-25077D01*
X82529Y-25053D01*
X82529Y-24982D01*
X82517Y-24958D01*
X82505Y-24946D01*
X82482Y-24934D01*
X82446Y-24934D01*
X82422Y-24946D01*
X82410Y-24958D01*
X82398Y-24982D01*
X82398Y-25053D01*
X82410Y-25077D01*
X82422Y-25089D01*
X82446Y-25101D01*
X82482Y-25101D01*
X82255Y-25101D02*
X82279Y-25089D01*
X82291Y-25065D01*
X82291Y-24851D01*
X82053Y-25101D02*
X82053Y-24970D01*
X82065Y-24946D01*
X82089Y-24934D01*
X82136Y-24934D01*
X82160Y-24946D01*
X82053Y-25089D02*
X82077Y-25101D01*
X82136Y-25101D01*
X82160Y-25089D01*
X82172Y-25065D01*
X82172Y-25041D01*
X82160Y-25017D01*
X82136Y-25005D01*
X82077Y-25005D01*
X82053Y-24994D01*
X81970Y-24934D02*
X81874Y-24934D01*
X81934Y-24851D02*
X81934Y-25065D01*
X81922Y-25089D01*
X81898Y-25101D01*
X81874Y-25101D01*
X81755Y-25101D02*
X81779Y-25089D01*
X81791Y-25077D01*
X81803Y-25053D01*
X81803Y-24982D01*
X81791Y-24958D01*
X81779Y-24946D01*
X81755Y-24934D01*
X81720Y-24934D01*
X81696Y-24946D01*
X81684Y-24958D01*
X81672Y-24982D01*
X81672Y-25053D01*
X81684Y-25077D01*
X81696Y-25089D01*
X81720Y-25101D01*
X81755Y-25101D01*
X81565Y-25101D02*
X81565Y-24934D01*
X81565Y-24982D02*
X81553Y-24958D01*
X81541Y-24946D01*
X81517Y-24934D01*
X81494Y-24934D01*
G54D13*
G36*
X83477Y-24457D02*
X83469Y-24453D01*
X83450Y-24441D01*
X83424Y-24424D01*
X83393Y-24403D01*
X83362Y-24382D01*
X83336Y-24365D01*
X83318Y-24353D01*
X83311Y-24349D01*
X83307Y-24350D01*
X83292Y-24358D01*
X83270Y-24369D01*
X83258Y-24375D01*
X83238Y-24384D01*
X83228Y-24386D01*
X83227Y-24383D01*
X83219Y-24368D01*
X83208Y-24342D01*
X83193Y-24308D01*
X83176Y-24268D01*
X83158Y-24225D01*
X83140Y-24181D01*
X83122Y-24139D01*
X83107Y-24101D01*
X83094Y-24071D01*
X83086Y-24049D01*
X83083Y-24040D01*
X83084Y-24038D01*
X83094Y-24029D01*
X83111Y-24016D01*
X83149Y-23985D01*
X83185Y-23939D01*
X83208Y-23887D01*
X83215Y-23829D01*
X83209Y-23776D01*
X83188Y-23725D01*
X83152Y-23678D01*
X83108Y-23644D01*
X83057Y-23622D01*
X83000Y-23615D01*
X82945Y-23621D01*
X82893Y-23642D01*
X82846Y-23677D01*
X82827Y-23700D01*
X82800Y-23747D01*
X82784Y-23797D01*
X82783Y-23809D01*
X82785Y-23865D01*
X82801Y-23918D01*
X82830Y-23965D01*
X82871Y-24004D01*
X82876Y-24008D01*
X82895Y-24022D01*
X82907Y-24031D01*
X82917Y-24039D01*
X82847Y-24209D01*
X82836Y-24236D01*
X82816Y-24282D01*
X82799Y-24322D01*
X82786Y-24354D01*
X82776Y-24375D01*
X82772Y-24384D01*
X82772Y-24384D01*
X82766Y-24385D01*
X82753Y-24380D01*
X82729Y-24369D01*
X82713Y-24361D01*
X82695Y-24352D01*
X82687Y-24349D01*
X82680Y-24353D01*
X82663Y-24364D01*
X82638Y-24381D01*
X82608Y-24401D01*
X82579Y-24421D01*
X82552Y-24439D01*
X82533Y-24451D01*
X82523Y-24456D01*
X82522Y-24456D01*
X82514Y-24451D01*
X82498Y-24439D01*
X82475Y-24417D01*
X82443Y-24385D01*
X82438Y-24380D01*
X82411Y-24352D01*
X82389Y-24329D01*
X82374Y-24313D01*
X82369Y-24306D01*
X82369Y-24306D01*
X82374Y-24296D01*
X82386Y-24277D01*
X82404Y-24250D01*
X82425Y-24219D01*
X82481Y-24137D01*
X82450Y-24060D01*
X82441Y-24037D01*
X82429Y-24008D01*
X82420Y-23988D01*
X82415Y-23979D01*
X82407Y-23976D01*
X82386Y-23971D01*
X82355Y-23964D01*
X82319Y-23958D01*
X82284Y-23951D01*
X82253Y-23945D01*
X82230Y-23941D01*
X82220Y-23939D01*
X82218Y-23937D01*
X82216Y-23932D01*
X82214Y-23922D01*
X82214Y-23903D01*
X82213Y-23873D01*
X82213Y-23829D01*
X82213Y-23825D01*
X82214Y-23783D01*
X82214Y-23750D01*
X82215Y-23729D01*
X82217Y-23721D01*
X82217Y-23721D01*
X82227Y-23718D01*
X82249Y-23714D01*
X82280Y-23707D01*
X82318Y-23700D01*
X82320Y-23700D01*
X82357Y-23693D01*
X82388Y-23686D01*
X82410Y-23681D01*
X82419Y-23678D01*
X82421Y-23676D01*
X82429Y-23661D01*
X82440Y-23638D01*
X82452Y-23610D01*
X82464Y-23581D01*
X82475Y-23554D01*
X82482Y-23535D01*
X82484Y-23526D01*
X82484Y-23526D01*
X82478Y-23517D01*
X82465Y-23497D01*
X82447Y-23471D01*
X82425Y-23439D01*
X82424Y-23436D01*
X82402Y-23405D01*
X82385Y-23378D01*
X82373Y-23359D01*
X82369Y-23351D01*
X82369Y-23350D01*
X82376Y-23341D01*
X82392Y-23323D01*
X82415Y-23299D01*
X82443Y-23271D01*
X82452Y-23263D01*
X82482Y-23233D01*
X82503Y-23213D01*
X82517Y-23203D01*
X82523Y-23200D01*
X82523Y-23201D01*
X82533Y-23206D01*
X82553Y-23219D01*
X82580Y-23238D01*
X82612Y-23259D01*
X82614Y-23261D01*
X82645Y-23282D01*
X82671Y-23300D01*
X82690Y-23312D01*
X82698Y-23317D01*
X82700Y-23317D01*
X82712Y-23313D01*
X82735Y-23306D01*
X82762Y-23295D01*
X82791Y-23283D01*
X82818Y-23272D01*
X82838Y-23263D01*
X82847Y-23258D01*
X82847Y-23257D01*
X82851Y-23246D01*
X82856Y-23222D01*
X82863Y-23190D01*
X82870Y-23151D01*
X82871Y-23145D01*
X82878Y-23108D01*
X82884Y-23077D01*
X82889Y-23055D01*
X82891Y-23046D01*
X82896Y-23045D01*
X82915Y-23044D01*
X82943Y-23043D01*
X82977Y-23043D01*
X83012Y-23043D01*
X83046Y-23044D01*
X83076Y-23045D01*
X83097Y-23046D01*
X83106Y-23048D01*
X83107Y-23049D01*
X83110Y-23060D01*
X83115Y-23084D01*
X83122Y-23116D01*
X83129Y-23155D01*
X83130Y-23162D01*
X83137Y-23199D01*
X83144Y-23230D01*
X83148Y-23251D01*
X83151Y-23259D01*
X83154Y-23261D01*
X83169Y-23268D01*
X83194Y-23278D01*
X83226Y-23291D01*
X83298Y-23320D01*
X83386Y-23259D01*
X83394Y-23254D01*
X83426Y-23232D01*
X83452Y-23215D01*
X83470Y-23203D01*
X83478Y-23199D01*
X83478Y-23199D01*
X83487Y-23207D01*
X83505Y-23223D01*
X83529Y-23247D01*
X83556Y-23274D01*
X83577Y-23295D01*
X83601Y-23320D01*
X83617Y-23336D01*
X83625Y-23347D01*
X83628Y-23354D01*
X83627Y-23358D01*
X83622Y-23367D01*
X83609Y-23386D01*
X83591Y-23413D01*
X83569Y-23444D01*
X83551Y-23471D01*
X83532Y-23500D01*
X83520Y-23521D01*
X83515Y-23532D01*
X83516Y-23536D01*
X83523Y-23553D01*
X83533Y-23580D01*
X83546Y-23611D01*
X83577Y-23681D01*
X83623Y-23689D01*
X83651Y-23695D01*
X83690Y-23702D01*
X83727Y-23709D01*
X83785Y-23721D01*
X83787Y-23933D01*
X83778Y-23937D01*
X83769Y-23940D01*
X83748Y-23944D01*
X83717Y-23950D01*
X83681Y-23957D01*
X83650Y-23963D01*
X83619Y-23969D01*
X83597Y-23973D01*
X83587Y-23975D01*
X83584Y-23979D01*
X83576Y-23994D01*
X83565Y-24018D01*
X83553Y-24047D01*
X83541Y-24076D01*
X83530Y-24104D01*
X83522Y-24125D01*
X83519Y-24136D01*
X83523Y-24144D01*
X83535Y-24162D01*
X83552Y-24188D01*
X83573Y-24219D01*
X83595Y-24250D01*
X83612Y-24277D01*
X83625Y-24296D01*
X83630Y-24304D01*
X83627Y-24310D01*
X83615Y-24325D01*
X83592Y-24349D01*
X83557Y-24384D01*
X83551Y-24389D01*
X83524Y-24416D01*
X83500Y-24437D01*
X83484Y-24452D01*
X83477Y-24457D01*
X83477Y-24457D01*
G37*
M02*
